<svg width="138" height="138" viewBox="0 0 138 138" fill="none" xmlns="http://www.w3.org/2000/svg">
<path opacity="0.2" d="M69 138C107.108 138 138 107.108 138 69C138 30.8923 107.108 0 69 0C30.8923 0 0 30.8923 0 69C0 107.108 30.8923 138 69 138Z" fill="#F5222D"/>
<path d="M68.9828 130.02C102.663 130.02 129.966 102.705 129.966 69.0098C129.966 35.315 102.663 8 68.9828 8C35.3029 8 8 35.315 8 69.0098C8 102.705 35.3029 130.02 68.9828 130.02Z" fill="#F5222D"/>
<path d="M97.5858 47.4845C98.3668 46.7034 98.3668 45.4371 97.5858 44.6561L93.3439 40.4142C92.5629 39.6332 91.2966 39.6332 90.5155 40.4142L70.4141 60.5154C69.6331 61.2965 68.3668 61.2965 67.5857 60.5154L47.4845 40.4142C46.7034 39.6332 45.4371 39.6332 44.6561 40.4142L40.4142 44.6561C39.6332 45.4371 39.6332 46.7034 40.4142 47.4845L60.5154 67.5857C61.2965 68.3668 61.2965 69.6331 60.5154 70.4141L40.4142 90.5155C39.6332 91.2966 39.6332 92.5629 40.4142 93.3439L44.6561 97.5858C45.4371 98.3668 46.7034 98.3668 47.4845 97.5858L67.5857 77.4846C68.3668 76.7035 69.6331 76.7035 70.4141 77.4846L90.5154 97.5858C91.2964 98.3668 92.5627 98.3668 93.3438 97.5858L97.5856 93.3439C98.3667 92.5629 98.3667 91.2966 97.5857 90.5155L77.4845 70.4141C76.7035 69.6331 76.7035 68.3668 77.4846 67.5857L97.5858 47.4845Z" fill="white"/>
</svg>
