<svg width="193" height="207" viewBox="0 0 193 207" fill="none" xmlns="http://www.w3.org/2000/svg">
<path opacity="0.2" d="M173.316 41.9293L95.2555 0.673892C94.0974 0.0608685 92.7095 0.0694718 91.5601 0.695401L15.6594 41.9508C14.4146 42.6284 13.6426 43.9233 13.6426 45.3321V99.2223C13.6881 143.521 40.15 183.598 81.0725 201.346L91.6078 205.899C92.5924 206.325 93.7136 206.327 94.7003 205.904L106.571 200.819C148.253 183.456 175.37 142.992 175.374 98.1533V45.3321C175.374 43.9082 174.583 42.5983 173.316 41.9293Z" fill="#99C0FF"/>
<path opacity="0.5" d="M166.014 47.8192L95.1865 10.5282C94.1358 9.97411 92.8765 9.98188 91.8336 10.5477L22.9662 47.8386C21.8367 48.451 21.1362 49.6215 21.1362 50.895V99.6065C21.1776 139.649 45.1874 175.874 82.3178 191.916L91.8769 196.032C92.7702 196.417 93.7875 196.419 94.6828 196.036L105.454 191.44C143.273 175.746 167.877 139.17 167.881 98.6402V50.895C167.881 49.6079 167.163 48.4238 166.014 47.8192Z" fill="#99C0FF"/>
<path d="M156.877 54.8133L94.7906 22.2302C93.8695 21.746 92.7656 21.7528 91.8514 22.2472L31.4826 54.8303C30.4925 55.3654 29.8784 56.3881 29.8784 57.5008V100.063C29.9146 135.05 50.9616 166.702 83.5099 180.719L91.8894 184.315C92.6725 184.651 93.5642 184.653 94.349 184.318L103.791 180.302C136.943 166.59 158.511 134.632 158.514 99.2184V57.5008C158.514 56.3762 157.885 55.3417 156.877 54.8133Z" fill="#99C0FF"/>
<path opacity="0.6" d="M116.208 161.382L116.185 161.391L107.346 165.168L99.6651 161.855C67.0935 147.769 46.0299 115.961 45.9929 80.7987V47.8536L31.7515 55.5736V99.5805C31.7886 134.743 52.8521 166.551 85.4237 180.637L93.1025 183.95L101.942 180.173L101.964 180.164C120.36 172.503 135.645 158.992 145.401 141.771C137.075 150.15 127.152 156.815 116.208 161.382Z" fill="#66A1FF"/>
<path d="M156.18 56.1415L156.181 56.1417C156.701 56.4144 157.014 56.9411 157.014 57.5008V99.2183C157.011 134.014 135.819 165.432 103.218 178.916L103.211 178.919L103.204 178.922L93.7619 182.938L93.7607 182.939C93.3534 183.112 92.8882 183.112 92.4814 182.937L92.481 182.937L84.1032 179.341C52.0955 165.557 31.4143 134.44 31.3784 100.062V57.5008C31.3784 56.9466 31.6838 56.4266 32.1958 56.1499L92.5639 23.5672L92.5649 23.5666C93.0394 23.3101 93.6141 23.3064 94.0927 23.558L94.0936 23.5584L156.18 56.1415Z" stroke="#99C0FF" stroke-width="3"/>
<path d="M26.244 49.1428C26.244 55.656 20.9104 60.9599 14.3015 60.9599C7.69246 60.9599 2.35889 55.656 2.35889 49.1428C2.35889 42.6296 7.69246 37.3257 14.3015 37.3257C20.9104 37.3257 26.244 42.6296 26.244 49.1428Z" fill="white" stroke="#FF7875" stroke-width="3"/>
<g clip-path="url(#clip0_2_818)">
<path d="M21.8427 49.2379C22.1127 49.2905 22.2885 49.5498 22.2357 49.817L22.0387 50.8108C21.9842 51.086 21.7088 51.2624 21.4307 51.1948C21.1703 51.1316 21.0124 50.868 21.064 50.6074L21.0694 50.5808L19.7709 50.6395C19.7318 50.6411 19.6978 50.6668 19.6857 50.7039C19.5588 51.0834 19.3919 51.4452 19.1898 51.7834C19.1693 51.8177 19.1725 51.8612 19.1985 51.8916L19.7728 52.5675C19.8868 52.46 20.0358 52.4041 20.1863 52.4041C20.3132 52.4041 20.4413 52.4438 20.5499 52.5263C20.8128 52.7256 20.8628 53.0984 20.6617 53.3593L20.4951 53.5747C20.2997 53.8279 19.9355 53.8958 19.6703 53.7147C19.4419 53.5589 19.3593 53.2787 19.4419 53.0353L18.6145 52.6751C18.5771 52.6589 18.5338 52.6684 18.5066 52.6983C18.1235 53.1149 17.6776 53.4735 17.1837 53.7597C17.1498 53.7794 17.1315 53.8175 17.1379 53.8559L17.3496 55.1353L17.5328 55.0626C17.7958 54.9586 18.095 55.0918 18.1888 55.36C18.2766 55.611 18.1389 55.8855 17.89 55.9838L16.9537 56.3551C16.6911 56.4592 16.3919 56.3259 16.298 56.0578C16.2103 55.8068 16.348 55.5323 16.5969 55.4336L16.6222 55.4238L15.8669 54.3753C15.8442 54.3436 15.8041 54.3296 15.766 54.3395C15.3147 54.4553 14.8413 54.5175 14.3531 54.5175C13.9668 54.5175 13.5901 54.4785 13.2259 54.4048C13.1875 54.3972 13.1481 54.4134 13.1269 54.4461L12.3713 55.6205L12.3979 55.63C12.6439 55.7189 12.7964 55.9489 12.7964 56.1939C12.7964 56.2624 12.7845 56.3319 12.7595 56.3998C12.7595 56.7511 12.487 56.9402 12.1538 56.8197L11.2253 56.4843C10.9145 56.3722 10.7525 56.0343 10.8598 55.7255C10.97 55.4073 11.3361 55.2467 11.6551 55.3619L11.6766 55.3695L11.8303 53.9933C11.8348 53.9546 11.8143 53.9177 11.7794 53.8997C11.1913 53.5988 10.6637 53.1981 10.2195 52.7198C10.1926 52.691 10.1506 52.6815 10.1141 52.6964L8.98082 53.1568C9.10895 53.3942 9.03688 53.695 8.80305 53.8473C8.55897 54.0063 8.22937 53.9323 8.06281 53.695L7.7726 53.2809C7.61021 53.0495 7.648 52.7271 7.87158 52.5526C8.10989 52.3667 8.44974 52.4149 8.62816 52.6488L9.42638 51.7552C9.45296 51.7254 9.45745 51.6822 9.43791 51.6476C9.11023 51.0625 8.88601 50.4126 8.7896 49.7224C8.78415 49.6837 8.75564 49.6523 8.71753 49.6437L7.44204 49.3518L7.44076 49.5C7.43948 49.6482 7.37798 49.7824 7.279 49.8792C7.18035 49.9763 7.04453 50.0359 6.89463 50.0359C6.59674 50.0359 6.35554 49.7951 6.35842 49.5L6.36675 48.582C6.36931 48.2818 6.6198 48.0289 6.92249 48.0368C7.21622 48.0444 7.45069 48.2837 7.44909 48.5756L8.71528 48.2814C8.75372 48.2726 8.78223 48.2411 8.78735 48.2024C8.88665 47.4726 9.12913 46.7875 9.48563 46.1757C9.50549 46.1414 9.50197 46.0986 9.47603 46.0681L8.87224 45.3656L8.81971 45.4341C8.65699 45.6473 8.34628 45.6845 8.13648 45.5115C7.93981 45.3491 7.91578 45.0578 8.07017 44.8556L8.47249 44.3289C8.56602 44.2067 8.70792 44.1423 8.85174 44.1423C8.95135 44.1423 9.05193 44.1734 9.13778 44.2375C9.33669 44.3863 9.38346 44.6598 9.25213 44.8648L10.0965 45.2266C10.1336 45.2424 10.1765 45.2329 10.2041 45.2034C10.6026 44.7706 11.0693 44.4006 11.5875 44.1096C11.6215 44.0902 11.6404 44.0525 11.6346 44.0141L11.4402 42.7318L11.2557 42.8022C10.9917 42.9028 10.6942 42.7654 10.6042 42.4963C10.5196 42.2441 10.6612 41.9715 10.9113 41.8763L11.8524 41.5177C12.1167 41.4171 12.4139 41.5542 12.5039 41.8236C12.5885 42.0756 12.4472 42.3481 12.1968 42.4437L12.1715 42.4532L12.912 43.5111C12.9344 43.5432 12.9742 43.5578 13.0123 43.5486C13.4421 43.4442 13.8909 43.389 14.3531 43.389H14.3537C14.3941 43.389 14.4303 43.3645 14.4438 43.3268L14.6891 42.6471C14.405 42.5588 14.2157 42.2812 14.2519 41.9785C14.2932 41.6354 14.6247 41.3917 14.971 41.4349L15.308 41.4768C15.6513 41.5196 15.9089 41.8242 15.8714 42.1654C15.8419 42.431 15.6491 42.6379 15.4044 42.7013L15.4896 43.4381C15.4941 43.4778 15.5238 43.5102 15.5636 43.5187C16.1331 43.6428 16.6702 43.8526 17.1603 44.1334C17.1946 44.1528 17.2369 44.1499 17.2673 44.1252L18.2837 43.308L18.1293 43.1865C17.9073 43.012 17.8759 42.6886 18.0642 42.4751C18.2404 42.2748 18.5495 42.2571 18.7593 42.4224L19.5489 43.0434C19.7709 43.2176 19.8023 43.5413 19.6139 43.7548C19.4377 43.9547 19.1286 43.9725 18.9188 43.8075L18.8974 43.7907L18.3532 44.9613C18.3365 44.9965 18.3442 45.0381 18.3717 45.066C18.7548 45.4547 19.0809 45.899 19.3365 46.3851C19.3551 46.4203 19.3939 46.4403 19.4336 46.4349L20.2052 46.328C20.0918 46.0145 20.26 45.667 20.5835 45.562C20.892 45.4617 21.2244 45.6315 21.3378 45.9329L21.5156 46.4051C21.6277 46.7037 21.4932 47.0455 21.1985 47.1724C20.916 47.2939 20.5973 47.1841 20.4454 46.936L19.8051 47.3663C19.7715 47.3888 19.7565 47.4301 19.7673 47.4688C19.899 47.9416 19.9695 48.4392 19.9695 48.9532C19.9695 49.0392 19.9675 49.1246 19.9634 49.2093C19.9618 49.2483 19.9839 49.2842 20.0198 49.2997L21.2203 49.8192L21.2581 49.6272C21.3113 49.3597 21.5729 49.1855 21.8427 49.2379Z" fill="#FFCCC7"/>
<path d="M16.792 46.8705C17.2299 46.8705 17.585 46.5765 17.585 46.2137C17.585 45.851 17.2299 45.5569 16.792 45.5569C16.354 45.5569 15.999 45.851 15.999 46.2137C15.999 46.5765 16.354 46.8705 16.792 46.8705Z" fill="#FF7875"/>
<path d="M13.9302 51.1627C14.4089 51.1627 14.7969 50.7783 14.7969 50.3041C14.7969 49.8299 14.4089 49.4454 13.9302 49.4454C13.4515 49.4454 13.0635 49.8299 13.0635 50.3041C13.0635 50.7783 13.4515 51.1627 13.9302 51.1627Z" fill="#FF7875"/>
<path d="M17.3081 50.4715C17.6508 50.4715 17.9286 50.1963 17.9286 49.8567C17.9286 49.5172 17.6508 49.2419 17.3081 49.2419C16.9653 49.2419 16.6875 49.5172 16.6875 49.8567C16.6875 50.1963 16.9653 50.4715 17.3081 50.4715Z" fill="#FFF1F0"/>
<path d="M15.0164 53.4547C15.3496 53.4547 15.6198 53.1871 15.6198 52.857C15.6198 52.5269 15.3496 52.2593 15.0164 52.2593C14.6832 52.2593 14.4131 52.5269 14.4131 52.857C14.4131 53.1871 14.6832 53.4547 15.0164 53.4547Z" fill="#FFF1F0"/>
<path d="M10.9374 48.6859C10.9374 46.5469 11.9674 44.6458 13.5623 43.4429C13.3761 43.4689 13.1922 43.504 13.0123 43.5478C12.9742 43.557 12.9344 43.5424 12.912 43.5103L12.1715 42.4524L12.1968 42.4428C12.4472 42.3473 12.5885 42.0747 12.5039 41.8228C12.4139 41.5534 12.1167 41.4163 11.8524 41.5169L10.9113 41.8755C10.6612 41.9707 10.5196 42.2432 10.6042 42.4955C10.6942 42.7646 10.9917 42.902 11.2557 42.8014L11.4402 42.731L11.6346 44.0133C11.6404 44.0517 11.6215 44.0894 11.5875 44.1088C11.0693 44.3998 10.6026 44.7698 10.2041 45.2026C10.1765 45.2321 10.1336 45.2416 10.0965 45.2258L9.25213 44.864C9.38346 44.659 9.33669 44.3855 9.13778 44.2367C9.05193 44.1726 8.95135 44.1415 8.85174 44.1415C8.70792 44.1415 8.56602 44.2059 8.47249 44.3281L8.07017 44.8548C7.91578 45.057 7.93981 45.3483 8.13648 45.5107C8.34628 45.6837 8.65699 45.6465 8.81971 45.4333L8.87224 45.3648L9.47603 46.0673C9.50197 46.0978 9.50549 46.1406 9.48563 46.1749C9.12913 46.7867 8.88665 47.4718 8.78735 48.2016C8.78223 48.2403 8.75372 48.2718 8.71528 48.2806L7.44909 48.5748C7.45069 48.2829 7.21622 48.0436 6.92249 48.036C6.6198 48.028 6.36931 48.281 6.36675 48.5811L6.35842 49.4992C6.35554 49.7943 6.59674 50.0351 6.89463 50.0351C7.04453 50.0351 7.18035 49.9755 7.279 49.8784C7.37798 49.7816 7.43948 49.6473 7.44076 49.4992L7.44204 49.351L8.71753 49.6429C8.75564 49.6515 8.78415 49.6829 8.7896 49.7216C8.88601 50.4118 9.11023 51.0617 9.43791 51.6468C9.45745 51.6814 9.45296 51.7245 9.42638 51.7544L8.62816 52.648C8.44974 52.4141 8.10989 52.3659 7.87158 52.5518C7.648 52.7263 7.61021 53.0487 7.7726 53.2801L8.06281 53.6942C8.22937 53.9315 8.55897 54.0055 8.80305 53.8465C9.03688 53.6942 9.10895 53.3933 8.98082 53.156L10.1141 52.6956C10.1506 52.6806 10.1926 52.6902 10.2195 52.719C10.6637 53.1972 11.1913 53.598 11.7794 53.8988C11.8143 53.9169 11.8348 53.9537 11.8303 53.9925L11.6766 55.3687L11.6551 55.3611C11.3361 55.2459 10.97 55.4064 10.8598 55.7247C10.7525 56.0335 10.9145 56.3714 11.2253 56.4834L12.1538 56.8189C12.487 56.9394 12.7595 56.7503 12.7595 56.399C12.7845 56.3311 12.7964 56.2616 12.7964 56.1931C12.7964 55.9481 12.6439 55.7181 12.3979 55.6292L12.3713 55.6197L13.1269 54.4453C13.1481 54.4126 13.1875 54.3964 13.2259 54.404C13.5901 54.4776 13.9668 54.5167 14.3531 54.5167C14.3986 54.5167 14.4447 54.5161 14.4899 54.5151C12.3782 53.4119 10.9374 51.2154 10.9374 48.6859Z" fill="#FFA39E"/>
<path d="M11.2413 52.0499C11.5884 52.0499 11.8698 51.7711 11.8698 51.4272C11.8698 51.0833 11.5884 50.8046 11.2413 50.8046C10.8942 50.8046 10.6128 51.0833 10.6128 51.4272C10.6128 51.7711 10.8942 52.0499 11.2413 52.0499Z" fill="#FF7875"/>
<path d="M15.8925 48.6867H15.6802C15.5475 48.6867 15.4399 48.5801 15.4399 48.4487C15.4399 48.3173 15.5475 48.2107 15.6802 48.2107H15.8925C16.0252 48.2107 16.1328 48.3173 16.1328 48.4487C16.1328 48.5801 16.0252 48.6867 15.8925 48.6867Z" fill="#FFF1F0"/>
<path d="M13.0634 52.8468H12.8452C12.7125 52.8468 12.605 52.7403 12.605 52.6088C12.605 52.4774 12.7125 52.3708 12.8452 52.3708H13.0634C13.1961 52.3708 13.3036 52.4774 13.3036 52.6088C13.3036 52.7403 13.1961 52.8468 13.0634 52.8468Z" fill="#FFF1F0"/>
<path d="M10.823 49.381H10.6128C10.4801 49.381 10.3726 49.2745 10.3726 49.143C10.3726 49.0116 10.4801 48.905 10.6128 48.905H10.823C10.9557 48.905 11.0632 49.0116 11.0632 49.143C11.0632 49.2745 10.9557 49.381 10.823 49.381Z" fill="#FF7875"/>
<path d="M15.0899 45.2172H14.7974C14.6647 45.2172 14.5571 45.1106 14.5571 44.9792C14.5571 44.8478 14.6647 44.7412 14.7974 44.7412H15.0899C15.2226 44.7412 15.3301 44.8478 15.3301 44.9792C15.3301 45.1106 15.2226 45.2172 15.0899 45.2172Z" fill="#FFF1F0"/>
<path d="M17.011 52.0722H16.688C16.5553 52.0722 16.4478 51.9656 16.4478 51.8342C16.4478 51.7027 16.5553 51.5962 16.688 51.5962H17.011C17.1437 51.5962 17.2512 51.7027 17.2512 51.8342C17.2512 51.9656 17.1437 52.0722 17.011 52.0722Z" fill="#FF7875"/>
<path d="M13.3464 47.9438C14.0637 47.3834 14.2623 46.4481 13.7899 45.8546C13.3175 45.2611 12.353 45.2342 11.6357 45.7946C10.9184 46.355 10.7199 47.2903 11.1922 47.8838C11.6646 48.4773 12.6291 48.5041 13.3464 47.9438Z" fill="#FF7875"/>
</g>
<path d="M22.9751 40.5504L5.62787 57.7357" stroke="#FF7875" stroke-width="3"/>
<path d="M64.3589 177.987C64.3589 187.267 56.761 194.814 47.3589 194.814C37.9568 194.814 30.3589 187.267 30.3589 177.987C30.3589 168.706 37.9568 161.159 47.3589 161.159C56.761 161.159 64.3589 168.706 64.3589 177.987Z" fill="white" stroke="#FF7875" stroke-width="3"/>
<g clip-path="url(#clip1_2_818)">
<path d="M57.7366 178.117C58.1082 178.189 58.3502 178.546 58.2775 178.914L58.0064 180.282C57.9314 180.66 57.5523 180.903 57.1697 180.81C56.8113 180.723 56.594 180.36 56.6649 180.002L56.6724 179.965L54.8853 180.046C54.8316 180.048 54.7848 180.083 54.7681 180.135C54.5935 180.657 54.3638 181.155 54.0857 181.62C54.0575 181.667 54.0619 181.727 54.0976 181.769L54.888 182.699C55.0449 182.551 55.2499 182.474 55.4571 182.474C55.6317 182.474 55.808 182.529 55.9574 182.643C56.3193 182.917 56.3881 183.43 56.1113 183.789L55.882 184.085C55.6131 184.434 55.1119 184.527 54.7469 184.278C54.4326 184.064 54.3189 183.678 54.4326 183.343L53.294 182.847C53.2424 182.825 53.1829 182.838 53.1454 182.879C52.6182 183.453 52.0046 183.946 51.3248 184.34C51.2781 184.367 51.253 184.42 51.2618 184.472L51.5532 186.233L51.8053 186.133C52.1672 185.99 52.579 186.173 52.7081 186.542C52.8289 186.888 52.6394 187.266 52.2968 187.401L51.0083 187.912C50.6468 188.055 50.2351 187.872 50.1059 187.503C49.9852 187.157 50.1747 186.779 50.5172 186.644L50.5521 186.63L49.5126 185.187C49.4813 185.144 49.4262 185.124 49.3737 185.138C48.7526 185.297 48.1011 185.383 47.4293 185.383C46.8976 185.383 46.3792 185.329 45.878 185.228C45.8251 185.217 45.7709 185.24 45.7418 185.285L44.7019 186.901L44.7385 186.914C45.077 187.036 45.2869 187.353 45.2869 187.69C45.2869 187.784 45.2706 187.88 45.2362 187.973C45.2362 188.457 44.861 188.717 44.4026 188.551L43.1246 188.09C42.697 187.935 42.474 187.47 42.6217 187.045C42.7733 186.607 43.2772 186.386 43.7162 186.545L43.7458 186.555L43.9574 184.661C43.9635 184.608 43.9353 184.558 43.8873 184.533C43.0779 184.119 42.3519 183.567 41.7405 182.909C41.7034 182.869 41.6457 182.856 41.5954 182.877L40.0358 183.51C40.2121 183.837 40.1129 184.251 39.7911 184.461C39.4552 184.679 39.0016 184.578 38.7724 184.251L38.373 183.681C38.1495 183.363 38.2015 182.919 38.5092 182.679C38.8372 182.423 39.3049 182.489 39.5505 182.811L40.649 181.581C40.6856 181.54 40.6917 181.481 40.6649 181.433C40.2139 180.628 39.9053 179.734 39.7726 178.784C39.7651 178.731 39.7259 178.687 39.6734 178.675L37.9181 178.274L37.9163 178.478C37.9146 178.682 37.8299 178.866 37.6937 179C37.5579 179.133 37.371 179.215 37.1647 179.215C36.7548 179.215 36.4228 178.884 36.4268 178.478L36.4383 177.214C36.4418 176.801 36.7865 176.453 37.2031 176.464C37.6073 176.474 37.93 176.804 37.9278 177.206L39.6704 176.801C39.7233 176.788 39.7625 176.745 39.7695 176.692C39.9062 175.688 40.2399 174.745 40.7305 173.903C40.7579 173.856 40.753 173.797 40.7173 173.755L39.8864 172.788L39.8141 172.882C39.5901 173.176 39.1625 173.227 38.8738 172.989C38.6031 172.765 38.5701 172.364 38.7825 172.086L39.3362 171.361C39.4649 171.193 39.6602 171.104 39.8582 171.104C39.9952 171.104 40.1337 171.147 40.2518 171.235C40.5256 171.44 40.5899 171.817 40.4092 172.099L41.5712 172.597C41.6223 172.618 41.6814 172.605 41.7193 172.565C42.2677 171.969 42.91 171.46 43.6232 171.059C43.6699 171.033 43.696 170.981 43.688 170.928L43.4204 169.163L43.1665 169.26C42.8033 169.398 42.3938 169.209 42.2699 168.839C42.1535 168.492 42.3484 168.117 42.6926 167.986L43.9878 167.492C44.3515 167.354 44.7605 167.542 44.8844 167.913C45.0008 168.26 44.8064 168.635 44.4617 168.767L44.4268 168.78L45.446 170.236C45.4769 170.28 45.5315 170.3 45.584 170.287C46.1756 170.144 46.7932 170.068 47.4293 170.068H47.4302C47.4857 170.068 47.5355 170.034 47.554 169.982L47.8917 169.047C47.5007 168.925 47.2402 168.543 47.29 168.126C47.3468 167.654 47.8031 167.319 48.2796 167.378L48.7434 167.436C49.2159 167.495 49.5703 167.914 49.5188 168.384C49.4782 168.749 49.2128 169.034 48.8761 169.121L48.9933 170.135C48.9995 170.19 49.0405 170.234 49.0951 170.246C49.8789 170.417 50.6182 170.706 51.2926 171.092C51.3398 171.119 51.398 171.115 51.4399 171.081L52.8386 169.956L52.6261 169.789C52.3206 169.549 52.2774 169.104 52.5366 168.81C52.7791 168.534 53.2045 168.51 53.4932 168.737L54.5799 169.592C54.8853 169.832 54.9285 170.277 54.6693 170.571C54.4269 170.846 54.0015 170.871 53.7128 170.644L53.6832 170.62L52.9343 172.231C52.9113 172.28 52.9219 172.337 52.9598 172.376C53.4871 172.91 53.9358 173.522 54.2876 174.191C54.3132 174.239 54.3665 174.267 54.4212 174.259L55.4831 174.112C55.327 173.681 55.5585 173.203 56.0037 173.058C56.4282 172.92 56.8858 173.154 57.0418 173.569L57.2865 174.218C57.4408 174.629 57.2556 175.1 56.8501 175.274C56.4613 175.442 56.0227 175.291 55.8137 174.949L54.9325 175.541C54.8862 175.572 54.8655 175.629 54.8805 175.682C55.0617 176.333 55.1587 177.018 55.1587 177.725C55.1587 177.844 55.156 177.961 55.1503 178.078C55.1481 178.131 55.1785 178.181 55.2279 178.202L56.8801 178.917L56.9321 178.653C57.0053 178.285 57.3654 178.045 57.7366 178.117Z" fill="#FFCCC7"/>
<path d="M50.7856 174.859C51.3883 174.859 51.8769 174.454 51.8769 173.955C51.8769 173.456 51.3883 173.051 50.7856 173.051C50.1829 173.051 49.6943 173.456 49.6943 173.955C49.6943 174.454 50.1829 174.859 50.7856 174.859Z" fill="#FF7875"/>
<path d="M46.8476 180.766C47.5064 180.766 48.0404 180.237 48.0404 179.584C48.0404 178.932 47.5064 178.403 46.8476 178.403C46.1888 178.403 45.6548 178.932 45.6548 179.584C45.6548 180.237 46.1888 180.766 46.8476 180.766Z" fill="#FF7875"/>
<path d="M51.4961 179.815C51.9678 179.815 52.3502 179.436 52.3502 178.969C52.3502 178.501 51.9678 178.123 51.4961 178.123C51.0245 178.123 50.6421 178.501 50.6421 178.969C50.6421 179.436 51.0245 179.815 51.4961 179.815Z" fill="#FFF1F0"/>
<path d="M48.342 183.92C48.8006 183.92 49.1724 183.552 49.1724 183.098C49.1724 182.643 48.8006 182.275 48.342 182.275C47.8835 182.275 47.5117 182.643 47.5117 183.098C47.5117 183.552 47.8835 183.92 48.342 183.92Z" fill="#FFF1F0"/>
<path d="M42.7285 177.357C42.7285 174.413 44.1461 171.797 46.3409 170.141C46.0846 170.177 45.8316 170.226 45.584 170.286C45.5315 170.298 45.4769 170.278 45.446 170.234L44.4268 168.778L44.4617 168.765C44.8064 168.634 45.0008 168.259 44.8844 167.912C44.7605 167.541 44.3515 167.352 43.9878 167.491L42.6926 167.984C42.3484 168.115 42.1535 168.49 42.2699 168.838C42.3938 169.208 42.8033 169.397 43.1665 169.259L43.4204 169.162L43.688 170.926C43.696 170.979 43.6699 171.031 43.6232 171.058C42.91 171.458 42.2677 171.968 41.7193 172.563C41.6814 172.604 41.6223 172.617 41.5712 172.595L40.4092 172.097C40.5899 171.815 40.5256 171.439 40.2518 171.234C40.1337 171.146 39.9952 171.103 39.8582 171.103C39.6602 171.103 39.4649 171.192 39.3362 171.36L38.7825 172.085C38.5701 172.363 38.6031 172.764 38.8738 172.987C39.1625 173.225 39.5901 173.174 39.8141 172.881L39.8864 172.786L40.7173 173.753C40.753 173.795 40.7579 173.854 40.7305 173.901C40.2399 174.743 39.9062 175.686 39.7695 176.691C39.7625 176.744 39.7233 176.787 39.6704 176.799L37.9278 177.204C37.93 176.802 37.6073 176.473 37.2031 176.463C36.7865 176.452 36.4418 176.8 36.4383 177.213L36.4268 178.476C36.4228 178.882 36.7548 179.214 37.1647 179.214C37.371 179.214 37.5579 179.132 37.6937 178.998C37.8299 178.865 37.9146 178.68 37.9163 178.476L37.9181 178.272L39.6734 178.674C39.7259 178.686 39.7651 178.729 39.7726 178.782C39.9053 179.732 40.2139 180.627 40.6649 181.432C40.6917 181.479 40.6856 181.539 40.649 181.58L39.5505 182.81C39.3049 182.488 38.8372 182.421 38.5092 182.677C38.2015 182.918 38.1495 183.361 38.373 183.68L38.7724 184.25C39.0016 184.576 39.4552 184.678 39.7911 184.459C40.1129 184.25 40.2121 183.836 40.0358 183.509L41.5954 182.875C41.6457 182.855 41.7034 182.868 41.7405 182.908C42.3519 183.566 43.0779 184.117 43.8873 184.531C43.9353 184.556 43.9635 184.607 43.9574 184.66L43.7458 186.554L43.7162 186.544C43.2772 186.385 42.7733 186.606 42.6217 187.044C42.474 187.469 42.697 187.934 43.1246 188.088L44.4026 188.55C44.861 188.716 45.2362 188.455 45.2362 187.972C45.2706 187.879 45.2869 187.783 45.2869 187.689C45.2869 187.351 45.077 187.035 44.7385 186.913L44.7019 186.899L45.7418 185.283C45.7709 185.238 45.8251 185.216 45.878 185.226C46.3792 185.328 46.8976 185.381 47.4293 185.381C47.4918 185.381 47.5554 185.381 47.6176 185.379C44.7114 183.861 42.7285 180.838 42.7285 177.357Z" fill="#FFA39E"/>
<path d="M43.1467 181.987C43.6244 181.987 44.0117 181.603 44.0117 181.13C44.0117 180.657 43.6244 180.273 43.1467 180.273C42.669 180.273 42.2817 180.657 42.2817 181.13C42.2817 181.603 42.669 181.987 43.1467 181.987Z" fill="#FF7875"/>
<path d="M49.5482 177.358H49.2559C49.0733 177.358 48.9253 177.212 48.9253 177.031C48.9253 176.85 49.0733 176.703 49.2559 176.703H49.5482C49.7308 176.703 49.8788 176.85 49.8788 177.031C49.8788 177.212 49.7308 177.358 49.5482 177.358Z" fill="#FFF1F0"/>
<path d="M45.6548 183.084H45.3545C45.1719 183.084 45.0239 182.937 45.0239 182.756C45.0239 182.575 45.1719 182.429 45.3545 182.429H45.6548C45.8375 182.429 45.9855 182.575 45.9855 182.756C45.9855 182.937 45.8375 183.084 45.6548 183.084Z" fill="#FFF1F0"/>
<path d="M42.5706 178.314H42.2813C42.0987 178.314 41.9507 178.167 41.9507 177.986C41.9507 177.805 42.0987 177.659 42.2813 177.659H42.5706C42.7532 177.659 42.9012 177.805 42.9012 177.986C42.9012 178.167 42.7532 178.314 42.5706 178.314Z" fill="#FF7875"/>
<path d="M48.4431 172.584H48.0406C47.8579 172.584 47.71 172.437 47.71 172.256C47.71 172.075 47.8579 171.928 48.0406 171.928H48.4431C48.6258 171.928 48.7738 172.075 48.7738 172.256C48.7738 172.437 48.6258 172.584 48.4431 172.584Z" fill="#FFF1F0"/>
<path d="M51.0867 182.017H50.6421C50.4595 182.017 50.3115 181.871 50.3115 181.69C50.3115 181.509 50.4595 181.362 50.6421 181.362H51.0867C51.2693 181.362 51.4173 181.509 51.4173 181.69C51.4173 181.871 51.2693 182.017 51.0867 182.017Z" fill="#FF7875"/>
<path d="M46.0441 176.336C47.0313 175.565 47.3045 174.277 46.6544 173.461C46.0043 172.644 44.677 172.607 43.6898 173.378C42.7026 174.149 42.4294 175.437 43.0795 176.253C43.7296 177.07 45.0569 177.107 46.0441 176.336Z" fill="#FF7875"/>
</g>
<path d="M59.2954 166.161L35.4217 189.812" stroke="#FF7875" stroke-width="3"/>
<path d="M191.359 85.2103C191.359 92.5829 185.322 98.5836 177.846 98.5836C170.369 98.5836 164.332 92.5829 164.332 85.2103C164.332 77.8376 170.369 71.8369 177.846 71.8369C185.322 71.8369 191.359 77.8376 191.359 85.2103Z" fill="white" stroke="#FF7875" stroke-width="3"/>
<g clip-path="url(#clip2_2_818)">
<path d="M186.267 85.3161C186.569 85.3749 186.765 85.6645 186.706 85.9629L186.486 87.0729C186.426 87.3801 186.118 87.5772 185.807 87.5017C185.516 87.4312 185.34 87.1367 185.398 86.8457L185.404 86.8159L183.953 86.8815C183.91 86.8833 183.872 86.912 183.858 86.9534C183.717 87.3773 183.53 87.7813 183.305 88.1591C183.282 88.1974 183.285 88.2459 183.314 88.28L183.956 89.0349C184.083 88.9147 184.249 88.8523 184.417 88.8523C184.559 88.8523 184.702 88.8966 184.824 88.9888C185.117 89.2113 185.173 89.6278 184.948 89.9191L184.762 90.1597C184.544 90.4426 184.137 90.5184 183.841 90.316C183.586 90.142 183.494 89.8291 183.586 89.5572L182.662 89.155C182.62 89.1369 182.572 89.1476 182.541 89.1809C182.114 89.6462 181.616 90.0467 181.064 90.3664C181.026 90.3883 181.006 90.4309 181.013 90.4737L181.249 91.9027L181.454 91.8215C181.748 91.7053 182.082 91.8542 182.187 92.1536C182.285 92.434 182.131 92.7405 181.853 92.8504L180.807 93.265C180.514 93.3813 180.18 93.2324 180.075 92.933C179.977 92.6526 180.131 92.3461 180.409 92.2358L180.437 92.2249L179.593 91.0539C179.568 91.0185 179.523 91.0029 179.481 91.0139C178.977 91.1432 178.448 91.2127 177.903 91.2127C177.471 91.2127 177.05 91.1691 176.644 91.0869C176.601 91.0784 176.557 91.0964 176.533 91.1329L175.689 92.4446L175.719 92.4552C175.994 92.5545 176.164 92.8114 176.164 93.085C176.164 93.1616 176.151 93.2392 176.123 93.315C176.123 93.7073 175.818 93.9186 175.446 93.7839L174.409 93.4093C174.062 93.2842 173.881 92.9067 174.001 92.5619C174.124 92.2064 174.533 92.0271 174.889 92.1558L174.913 92.1643L175.085 90.6272C175.09 90.584 175.067 90.5428 175.028 90.5226C174.371 90.1867 173.782 89.7391 173.286 89.205C173.256 89.1727 173.209 89.1621 173.168 89.1787L171.903 89.693C172.046 89.9581 171.965 90.2941 171.704 90.4642C171.431 90.6417 171.063 90.5592 170.877 90.2941L170.553 89.8316C170.372 89.5732 170.414 89.2131 170.664 89.0182C170.93 88.8105 171.309 88.8644 171.509 89.1256L172.4 88.1276C172.43 88.0943 172.435 88.0461 172.413 88.0074C172.047 87.3539 171.797 86.6281 171.689 85.8573C171.683 85.814 171.651 85.7789 171.608 85.7694L170.184 85.4433L170.182 85.6088C170.181 85.7743 170.112 85.9242 170.002 86.0323C169.892 86.1408 169.74 86.2074 169.573 86.2074C169.24 86.2074 168.97 85.9384 168.974 85.6088L168.983 84.5835C168.986 84.2482 169.266 83.9658 169.604 83.9746C169.932 83.9832 170.194 84.2504 170.192 84.5764L171.606 84.2479C171.649 84.238 171.681 84.2029 171.686 84.1596C171.797 83.3445 172.068 82.5794 172.466 81.8961C172.489 81.8578 172.485 81.8099 172.456 81.7759L171.781 80.9913L171.723 81.0678C171.541 81.306 171.194 81.3474 170.96 81.1543C170.74 80.9728 170.713 80.6475 170.885 80.4217L171.335 79.8334C171.439 79.697 171.598 79.625 171.758 79.625C171.87 79.625 171.982 79.6598 172.078 79.7313C172.3 79.8976 172.352 80.2031 172.206 80.432L173.149 80.836C173.19 80.8537 173.238 80.8431 173.269 80.8102C173.714 80.3267 174.235 79.9135 174.814 79.5885C174.852 79.5669 174.873 79.5247 174.866 79.4818L174.649 78.0497L174.443 78.1284C174.148 78.2407 173.816 78.0873 173.716 77.7867C173.621 77.505 173.779 77.2005 174.059 77.0942L175.11 76.6937C175.405 76.5814 175.737 76.7345 175.837 77.0354C175.932 77.3168 175.774 77.6212 175.494 77.7279L175.466 77.7385L176.293 78.9201C176.318 78.9559 176.363 78.9722 176.405 78.9619C176.885 78.8453 177.386 78.7837 177.903 78.7837H177.903C177.948 78.7837 177.989 78.7564 178.004 78.7142L178.278 77.9551C177.961 77.8565 177.749 77.5464 177.79 77.2083C177.836 76.8252 178.206 76.553 178.593 76.6012L178.969 76.648C179.353 76.6959 179.64 77.0361 179.598 77.4171C179.565 77.7137 179.35 77.9448 179.077 78.0157L179.172 78.8386C179.177 78.8829 179.21 78.919 179.255 78.9286C179.891 79.0672 180.491 79.3015 181.038 79.6151C181.076 79.6367 181.123 79.6335 181.157 79.6059L182.292 78.6933L182.12 78.5576C181.872 78.3626 181.837 78.0015 182.047 77.763C182.244 77.5393 182.589 77.5195 182.824 77.7041L183.706 78.3977C183.953 78.5923 183.989 78.9538 183.778 79.1923C183.581 79.4156 183.236 79.4354 183.002 79.2511L182.978 79.2323L182.37 80.5397C182.352 80.5791 182.36 80.6255 182.391 80.6567C182.819 81.0908 183.183 81.587 183.468 82.13C183.489 82.1693 183.532 82.1916 183.577 82.1856L184.439 82.0662C184.312 81.716 184.5 81.3279 184.861 81.2106C185.206 81.0986 185.577 81.2883 185.704 81.6249L185.902 82.1523C186.027 82.4858 185.877 82.8675 185.548 83.0092C185.232 83.145 184.876 83.0224 184.707 82.7452L183.992 83.2258C183.954 83.2509 183.937 83.297 183.95 83.3403C184.097 83.8683 184.175 84.424 184.175 84.9982C184.175 85.0942 184.173 85.1895 184.169 85.2842C184.167 85.3278 184.191 85.3678 184.231 85.3852L185.572 85.9653L185.615 85.7509C185.674 85.4522 185.966 85.2576 186.267 85.3161Z" fill="#FFCCC7"/>
<path d="M180.626 82.6721C181.115 82.6721 181.512 82.3437 181.512 81.9385C181.512 81.5334 181.115 81.205 180.626 81.205C180.137 81.205 179.741 81.5334 179.741 81.9385C179.741 82.3437 180.137 82.6721 180.626 82.6721Z" fill="#FF7875"/>
<path d="M177.43 87.466C177.965 87.466 178.398 87.0366 178.398 86.507C178.398 85.9773 177.965 85.548 177.43 85.548C176.896 85.548 176.462 85.9773 176.462 86.507C176.462 87.0366 176.896 87.466 177.43 87.466Z" fill="#FF7875"/>
<path d="M181.203 86.6939C181.586 86.6939 181.896 86.3865 181.896 86.0073C181.896 85.6281 181.586 85.3207 181.203 85.3207C180.821 85.3207 180.51 85.6281 180.51 86.0073C180.51 86.3865 180.821 86.6939 181.203 86.6939Z" fill="#FFF1F0"/>
<path d="M178.644 90.0257C179.016 90.0257 179.317 89.7268 179.317 89.3581C179.317 88.9894 179.016 88.6906 178.644 88.6906C178.271 88.6906 177.97 88.9894 177.97 89.3581C177.97 89.7268 178.271 90.0257 178.644 90.0257Z" fill="#FFF1F0"/>
<path d="M174.088 84.6996C174.088 82.3106 175.238 80.1873 177.019 78.8438C176.811 78.8728 176.606 78.9121 176.405 78.9609C176.363 78.9712 176.318 78.9549 176.293 78.9191L175.466 77.7375L175.494 77.7269C175.774 77.6202 175.932 77.3158 175.837 77.0344C175.737 76.7335 175.405 76.5804 175.11 76.6927L174.059 77.0932C173.779 77.1995 173.621 77.504 173.716 77.7857C173.816 78.0863 174.148 78.2397 174.443 78.1274L174.649 78.0487L174.866 79.4809C174.873 79.5237 174.852 79.5659 174.814 79.5875C174.235 79.9125 173.714 80.3258 173.269 80.8092C173.238 80.8421 173.19 80.8528 173.149 80.835L172.206 80.431C172.352 80.2021 172.3 79.8966 172.078 79.7304C171.982 79.6588 171.87 79.624 171.758 79.624C171.598 79.624 171.439 79.696 171.335 79.8324L170.885 80.4207C170.713 80.6465 170.74 80.9718 170.96 81.1533C171.194 81.3464 171.541 81.305 171.723 81.0668L171.781 80.9903L172.456 81.7749C172.485 81.8089 172.489 81.8568 172.466 81.8951C172.068 82.5784 171.797 83.3435 171.686 84.1587C171.681 84.2019 171.649 84.237 171.606 84.2469L170.192 84.5754C170.194 84.2494 169.932 83.9822 169.604 83.9737C169.266 83.9648 168.986 84.2473 168.983 84.5825L168.974 85.6078C168.97 85.9374 169.24 86.2064 169.573 86.2064C169.74 86.2064 169.892 86.1398 170.002 86.0313C170.112 85.9232 170.181 85.7733 170.182 85.6078L170.184 85.4423L171.608 85.7684C171.651 85.7779 171.683 85.813 171.689 85.8563C171.797 86.6271 172.047 87.3529 172.413 88.0064C172.435 88.0451 172.43 88.0933 172.4 88.1266L171.509 89.1246C171.309 88.8634 170.93 88.8095 170.664 89.0172C170.414 89.2121 170.372 89.5722 170.553 89.8306L170.877 90.2931C171.063 90.5582 171.431 90.6407 171.704 90.4632C171.965 90.2931 172.046 89.9571 171.903 89.692L173.168 89.1778C173.209 89.1611 173.256 89.1717 173.286 89.204C173.782 89.7381 174.371 90.1857 175.028 90.5217C175.067 90.5419 175.09 90.583 175.085 90.6262L174.913 92.1633L174.889 92.1548C174.533 92.0261 174.124 92.2054 174.001 92.5609C173.881 92.9057 174.062 93.2832 174.409 93.4083L175.446 93.7829C175.818 93.9176 176.123 93.7064 176.123 93.314C176.151 93.2382 176.164 93.1606 176.164 93.084C176.164 92.8104 175.994 92.5535 175.719 92.4542L175.689 92.4436L176.533 91.1319C176.557 91.0954 176.601 91.0774 176.644 91.0859C177.05 91.1681 177.471 91.2117 177.903 91.2117C177.953 91.2117 178.005 91.2111 178.055 91.2099C175.697 89.9778 174.088 87.5246 174.088 84.6996Z" fill="#FFA39E"/>
<path d="M174.427 88.4567C174.815 88.4567 175.129 88.1454 175.129 87.7613C175.129 87.3773 174.815 87.0659 174.427 87.0659C174.039 87.0659 173.725 87.3773 173.725 87.7613C173.725 88.1454 174.039 88.4567 174.427 88.4567Z" fill="#FF7875"/>
<path d="M179.622 84.7006H179.385C179.237 84.7006 179.117 84.5815 179.117 84.4348C179.117 84.288 179.237 84.1689 179.385 84.1689H179.622C179.77 84.1689 179.89 84.288 179.89 84.4348C179.89 84.5815 179.77 84.7006 179.622 84.7006Z" fill="#FFF1F0"/>
<path d="M176.462 89.3468H176.219C176.07 89.3468 175.95 89.2278 175.95 89.081C175.95 88.9342 176.07 88.8152 176.219 88.8152H176.462C176.61 88.8152 176.731 88.9342 176.731 89.081C176.731 89.2278 176.61 89.3468 176.462 89.3468Z" fill="#FFF1F0"/>
<path d="M173.96 85.4759H173.725C173.577 85.4759 173.457 85.3569 173.457 85.2101C173.457 85.0633 173.577 84.9443 173.725 84.9443H173.96C174.108 84.9443 174.228 85.0633 174.228 85.2101C174.228 85.3569 174.108 85.4759 173.96 85.4759Z" fill="#FF7875"/>
<path d="M178.725 80.8254H178.399C178.25 80.8254 178.13 80.7064 178.13 80.5596C178.13 80.4128 178.25 80.2938 178.399 80.2938H178.725C178.874 80.2938 178.994 80.4128 178.994 80.5596C178.994 80.7064 178.874 80.8254 178.725 80.8254Z" fill="#FFF1F0"/>
<path d="M180.871 88.4816H180.51C180.362 88.4816 180.242 88.3626 180.242 88.2158C180.242 88.069 180.362 87.95 180.51 87.95H180.871C181.019 87.95 181.139 88.069 181.139 88.2158C181.139 88.3626 181.019 88.4816 180.871 88.4816Z" fill="#FF7875"/>
<path d="M176.779 83.8707C177.58 83.2448 177.802 82.2002 177.274 81.5373C176.746 80.8745 175.669 80.8445 174.868 81.4703C174.067 82.0962 173.845 83.1408 174.373 83.8037C174.9 84.4665 175.978 84.4965 176.779 83.8707Z" fill="#FF7875"/>
</g>
<path d="M187.533 75.6136L168.158 94.8073" stroke="#FF7875" stroke-width="3"/>
<path fill-rule="evenodd" clip-rule="evenodd" d="M75.7519 146.476C68.8544 140.321 62.9902 133.16 58.3475 125.276L60.2498 120.794C58.2232 114.206 57.611 108.115 58.181 104.614C58.2619 104.103 58.4137 103.423 58.6009 102.586C59.2925 99.4919 60.4672 94.2366 60.3343 87.2746C60.3137 86.0704 60.1151 84.0099 59.8966 81.7442C59.4424 77.0328 58.9027 71.4345 59.701 70.805C60.8832 69.8727 66.8152 69.5206 69.6441 81.6604C72.4729 93.8003 99.6423 115.387 99.6423 115.387C99.6423 115.387 97.299 123.301 84.8648 126.47C83.5771 126.802 82.2471 126.967 80.9382 127.009L75.7519 146.476Z" fill="white"/>
<path d="M107.137 70.5358C108.741 71.8202 109.142 73.954 108.002 75.342L102.366 82.9243C101.226 84.2916 99.0093 84.3744 97.4049 83.09C95.8005 81.8056 95.3994 79.6718 96.5393 78.2838L102.176 70.7015C103.295 69.3342 105.511 69.2514 107.137 70.5358Z" fill="white"/>
<path d="M103.253 119.8C103.253 121.416 101.901 122.742 100.255 122.721L67.639 122.617C65.9923 122.617 64.6412 121.291 64.6624 119.675L64.8946 55.7442C64.8735 54.1076 66.2245 52.8025 67.8712 52.8025L100.487 52.9061C102.134 52.9061 103.485 54.2319 103.464 55.8478L103.253 119.8Z" fill="#003059"/>
<path d="M89.615 55.682C89.615 55.9099 89.425 56.0756 89.2139 56.0756L79.4397 56.0342C79.2075 56.0342 79.0386 55.8477 79.0386 55.6406C79.0386 55.4127 79.2286 55.2469 79.4397 55.2469L89.2139 55.2884C89.4461 55.2677 89.615 55.4541 89.615 55.682Z" fill="#264F71"/>
<path d="M87.7992 116.961C87.7992 119.033 86.0681 120.732 83.936 120.711C81.8249 120.711 80.0938 119.012 80.1149 116.92C80.1149 114.828 81.846 113.15 83.9782 113.17C86.0892 113.17 87.8203 114.869 87.7992 116.961Z" fill="#C9D6D7"/>
<path d="M87.7992 116.961C87.7992 119.033 86.0681 120.732 83.936 120.711C81.8249 120.711 80.0938 119.012 80.1149 116.92C80.1149 114.828 81.846 113.15 83.9782 113.17C86.0892 113.17 87.8203 114.869 87.7992 116.961Z" fill="#264F71"/>
<path d="M87.0397 116.941C87.0397 118.598 85.6464 119.945 83.9575 119.945C82.2687 119.945 80.8965 118.577 80.8965 116.92C80.8965 115.263 82.2898 113.916 83.9786 113.916C85.6675 113.937 87.0397 115.284 87.0397 116.941Z" fill="#003059"/>
<path d="M64.8588 58.5871L64.6733 111.145L103.285 111.276L103.47 58.7183L64.8588 58.5871Z" fill="#EAEDF0"/>
<path d="M103.442 65.3772L103.485 58.7065L64.8733 58.5822L64.8311 65.3772H103.442Z" fill="#0062FF"/>
<path d="M101.986 73.6583H66.1608C66.0764 73.6583 66.0342 73.5961 66.0342 73.534C66.0342 73.4511 66.0975 73.4097 66.1608 73.4097H101.986C102.07 73.4097 102.112 73.4718 102.112 73.534C102.133 73.5961 102.07 73.6583 101.986 73.6583Z" fill="white"/>
<path d="M101.986 81.0569H66.1608C66.0764 81.0569 66.0342 80.9948 66.0342 80.9326C66.0342 80.8498 66.0975 80.8083 66.1608 80.8083H101.986C102.07 80.8083 102.112 80.8705 102.112 80.9326C102.133 80.9948 102.07 81.0569 101.986 81.0569Z" fill="white"/>
<path d="M99.7273 63.5542C100.543 63.5542 101.205 62.905 101.205 62.1041C101.205 61.3032 100.543 60.6539 99.7273 60.6539C98.9111 60.6539 98.2495 61.3032 98.2495 62.1041C98.2495 62.905 98.9111 63.5542 99.7273 63.5542Z" fill="white"/>
<path d="M78.7852 83.0514H71.7554V84.1079H78.7852V83.0514Z" fill="#92A0B0"/>
<path d="M88.9394 84.9159H71.7554V85.9724H88.9394V84.9159Z" fill="#92A0B0"/>
<path d="M78.7852 75.6912H71.7554V76.7477H78.7852V75.6912Z" fill="#92A0B0"/>
<path d="M88.9394 77.5557H71.7554V78.6122H88.9394V77.5557Z" fill="#92A0B0"/>
<path d="M78.7852 68.3311H71.7554V69.3876H78.7852V68.3311Z" fill="#92A0B0"/>
<path d="M88.9394 70.1957H71.7554V71.2522H88.9394V70.1957Z" fill="#92A0B0"/>
<path d="M100.8 111.26L67.2129 111.157V90.3573C67.2129 89.9844 67.5084 89.6943 67.8884 89.6943H100.124C100.504 89.6943 100.8 89.9844 100.8 90.3573V111.26Z" fill="white"/>
<g opacity="0.1">
<path opacity="0.1" d="M97.6581 86.9225C96.2226 87.9791 96.0748 90.1543 97.3203 91.7909C98.1859 92.9096 99.4736 93.469 100.677 93.3654L98.8614 94.6912C97.4259 95.7478 97.2781 97.923 98.5236 99.5596C99.5158 100.865 101.12 101.403 102.45 101.03L100.276 102.667C98.8403 103.724 98.6925 105.899 99.938 107.535C100.804 108.654 102.112 109.234 103.316 109.11L103.4 82.7378L97.6581 86.9225Z" fill="#560000"/>
<path opacity="0.1" d="M102.937 71.1366L97.702 75.0106C96.2665 76.0672 96.1187 78.2424 97.3643 79.879C98.6098 81.4949 100.784 81.9506 102.22 80.8941L103.402 80.024L103.444 70.8673C103.254 70.9087 103.106 71.0123 102.937 71.1366Z" fill="#560000"/>
</g>
<path d="M110.62 80.9355C111.866 82.5514 111.718 84.7266 110.282 85.8039L102.176 91.7081C100.74 92.7646 98.5659 92.3089 97.3203 90.693C96.0748 89.0771 96.2226 86.9019 97.6581 85.8246L105.743 79.8997C107.2 78.8431 109.374 79.2989 110.62 80.9355Z" fill="white"/>
<path d="M111.802 88.6835C113.048 90.2994 112.9 92.4746 111.464 93.5519L103.379 99.4768C101.943 100.533 99.769 100.078 98.5235 98.4617C97.2779 96.8458 97.4257 94.6706 98.8612 93.5933L106.947 87.6684C108.382 86.6118 110.557 87.0676 111.802 88.6835Z" fill="white"/>
<path d="M111.085 98.1095C112.33 99.7254 112.182 101.901 110.747 102.978L104.772 107.473C103.337 108.53 101.163 108.074 99.917 106.458C98.6715 104.842 98.8193 102.667 100.255 101.59L106.229 97.0944C107.665 96.0171 109.839 96.4729 111.085 98.1095Z" fill="white"/>
<path d="M107.791 71.0536C109.037 72.6695 108.889 74.8447 107.454 75.922L102.218 79.796C100.783 80.8525 98.6083 80.3968 97.3628 78.7809C96.1173 77.165 96.2651 74.9897 97.7006 73.9125L102.936 70.0385C104.372 68.9819 106.546 69.4377 107.791 71.0536Z" fill="white"/>
<path d="M73.6978 60.6539H66.668V61.7105H73.6978V60.6539Z" fill="#66A1FF"/>
<path d="M83.852 62.5184H66.668V63.575H83.852V62.5184Z" fill="#66A1FF"/>
<path fill-rule="evenodd" clip-rule="evenodd" d="M116.376 161.391L116.398 161.382C124.157 158.144 131.403 153.851 137.931 148.641C137.889 148.326 137.846 147.999 137.802 147.662C137.255 143.477 136.525 137.888 136.185 137.098C135.541 135.637 134.943 133.958 134.35 132.292C132.941 128.335 131.557 124.45 129.641 123.736C126.918 122.721 124.976 126.015 124.976 126.015C124.976 126.015 123.371 120.545 118.959 121.229C116.046 121.664 115.054 126.781 115.054 126.781C115.054 126.781 112.605 118.805 108.404 120.048C106.778 120.525 105.849 122.265 105.322 124.212L97.7006 104.2C97.0673 102.543 95.1674 101.693 93.4785 102.315C91.7897 102.936 90.9241 104.801 91.5574 106.458L99.4317 133.245C98.1228 131.318 96.6873 129.412 95.4629 128.231C93.563 126.388 90.9241 126.118 89.0875 126.201C88.0109 126.242 87.3353 127.361 87.7997 128.314C88.3528 129.468 89.716 132.857 91.3037 136.803C93.5345 142.347 96.2084 148.992 97.7006 152.091L111.616 163.425L116.376 161.391Z" fill="white"/>
<g clip-path="url(#clip3_2_818)">
<path d="M69.8526 68.1229H66.7108C66.6353 68.1229 66.5742 68.1834 66.5742 68.2582V71.3707C66.5742 71.4455 66.6353 71.506 66.7108 71.506H69.8526C69.9281 71.506 69.9892 71.4455 69.9892 71.3707V68.2582C69.9892 68.1834 69.9281 68.1229 69.8526 68.1229ZM69.065 69.1958L68.166 70.4306C68.1534 70.448 68.1369 70.4621 68.1177 70.4719C68.0985 70.4817 68.0772 70.4868 68.0557 70.4868C68.0341 70.4868 68.0128 70.4817 67.9936 70.4719C67.9744 70.4621 67.9579 70.448 67.9453 70.4306L67.413 69.6999C67.3968 69.6774 67.413 69.6462 67.4408 69.6462H67.641C67.6845 69.6462 67.7259 69.6669 67.7515 69.7024L68.0554 70.1202L68.7265 69.1983C68.7521 69.1632 68.7931 69.1421 68.837 69.1421H69.0372C69.065 69.1421 69.0812 69.1734 69.065 69.1958Z" fill="#15B982"/>
</g>
<g clip-path="url(#clip4_2_818)">
<path d="M69.8526 75.5464H66.7108C66.6353 75.5464 66.5742 75.6069 66.5742 75.6817V78.7941C66.5742 78.869 66.6353 78.9295 66.7108 78.9295H69.8526C69.9281 78.9295 69.9892 78.869 69.9892 78.7941V75.6817C69.9892 75.6069 69.9281 75.5464 69.8526 75.5464ZM69.065 76.6192L68.166 77.8541C68.1534 77.8714 68.1369 77.8856 68.1177 77.8954C68.0985 77.9051 68.0772 77.9102 68.0557 77.9102C68.0341 77.9102 68.0128 77.9051 67.9936 77.8954C67.9744 77.8856 67.9579 77.8714 67.9453 77.8541L67.413 77.1233C67.3968 77.1009 67.413 77.0696 67.4408 77.0696H67.641C67.6845 77.0696 67.7259 77.0903 67.7515 77.1259L68.0554 77.5437L68.7265 76.6218C68.7521 76.5867 68.7931 76.5655 68.837 76.5655H69.0372C69.065 76.5655 69.0812 76.5968 69.065 76.6192Z" fill="#15B982"/>
</g>
<g clip-path="url(#clip5_2_818)">
<path d="M69.8526 82.9696H66.7108C66.6353 82.9696 66.5742 83.0301 66.5742 83.1049V86.2174C66.5742 86.2922 66.6353 86.3527 66.7108 86.3527H69.8526C69.9281 86.3527 69.9892 86.2922 69.9892 86.2174V83.1049C69.9892 83.0301 69.9281 82.9696 69.8526 82.9696ZM69.065 84.0425L68.166 85.2773C68.1534 85.2947 68.1369 85.3088 68.1177 85.3186C68.0985 85.3283 68.0772 85.3334 68.0557 85.3334C68.0341 85.3334 68.0128 85.3283 67.9936 85.3186C67.9744 85.3088 67.9579 85.2947 67.9453 85.2773L67.413 84.5465C67.3968 84.5241 67.413 84.4928 67.4408 84.4928H67.641C67.6845 84.4928 67.7259 84.5136 67.7515 84.5491L68.0554 84.9669L68.7265 84.045C68.7521 84.0099 68.7931 83.9888 68.837 83.9888H69.0372C69.065 83.9888 69.0812 84.02 69.065 84.0425Z" fill="#15B982"/>
</g>
<path d="M64.261 71.4681C64.261 71.4681 67.1531 73.8298 67.6175 77.8695C68.082 81.9093 64.7676 88.1035 64.7676 88.1035L63.501 78.1389L64.261 71.4681Z" fill="white"/>
<mask id="path-83-outside-1_2_818" maskUnits="userSpaceOnUse" x="76.3711" y="92.9402" width="15" height="16" fill="black">
<rect fill="white" x="76.3711" y="92.9402" width="15" height="16"/>
<path fill-rule="evenodd" clip-rule="evenodd" d="M84.5082 94.9402H83.5237C83.4361 94.9402 83.3924 94.9835 83.3924 95.0702V100.175H78.5024C78.4149 100.175 78.3711 100.218 78.3711 100.305V101.28C78.3711 101.367 78.4149 101.41 78.5024 101.41H83.3924V106.515C83.3924 106.601 83.4361 106.645 83.5237 106.645H84.5082C84.5957 106.645 84.6395 106.601 84.6395 106.515V101.41H89.5295C89.617 101.41 89.6608 101.367 89.6608 101.28V100.305C89.6608 100.218 89.617 100.175 89.5295 100.175H84.6395V95.0702C84.6395 94.9835 84.5957 94.9402 84.5082 94.9402Z"/>
</mask>
<path fill-rule="evenodd" clip-rule="evenodd" d="M84.5082 94.9402H83.5237C83.4361 94.9402 83.3924 94.9835 83.3924 95.0702V100.175H78.5024C78.4149 100.175 78.3711 100.218 78.3711 100.305V101.28C78.3711 101.367 78.4149 101.41 78.5024 101.41H83.3924V106.515C83.3924 106.601 83.4361 106.645 83.5237 106.645H84.5082C84.5957 106.645 84.6395 106.601 84.6395 106.515V101.41H89.5295C89.617 101.41 89.6608 101.367 89.6608 101.28V100.305C89.6608 100.218 89.617 100.175 89.5295 100.175H84.6395V95.0702C84.6395 94.9835 84.5957 94.9402 84.5082 94.9402Z" fill="#0062FF"/>
<path d="M83.3924 100.175V101.675H84.8924V100.175H83.3924ZM83.3924 101.41H84.8924V99.9102H83.3924V101.41ZM84.6395 101.41V99.9102H83.1395V101.41H84.6395ZM84.6395 100.175H83.1395V101.675H84.6395V100.175ZM83.5237 96.4402H84.5082V93.4402H83.5237V96.4402ZM84.8924 95.0702C84.8924 95.2617 84.8426 95.68 84.4809 96.0383C84.1218 96.3941 83.7076 96.4402 83.5237 96.4402V93.4402C83.2522 93.4402 82.7724 93.508 82.3695 93.9071C81.9641 94.3088 81.8924 94.7921 81.8924 95.0702H84.8924ZM84.8924 100.175V95.0702H81.8924V100.175H84.8924ZM78.5024 101.675H83.3924V98.6747H78.5024V101.675ZM79.8711 100.305C79.8711 100.496 79.8213 100.915 79.4596 101.273C79.1005 101.629 78.6863 101.675 78.5024 101.675V98.6747C78.2309 98.6747 77.7511 98.7425 77.3482 99.1416C76.9428 99.5433 76.8711 100.027 76.8711 100.305H79.8711ZM79.8711 101.28V100.305H76.8711V101.28H79.8711ZM78.5024 99.9102C78.6863 99.9102 79.1005 99.9563 79.4596 100.312C79.8213 100.67 79.8711 101.089 79.8711 101.28H76.8711C76.8711 101.558 76.9428 102.042 77.3482 102.443C77.7511 102.842 78.2309 102.91 78.5024 102.91V99.9102ZM83.3924 99.9102H78.5024V102.91H83.3924V99.9102ZM84.8924 106.515V101.41H81.8924V106.515H84.8924ZM83.5237 105.145C83.7076 105.145 84.1218 105.191 84.4809 105.547C84.8426 105.905 84.8924 106.323 84.8924 106.515H81.8924C81.8924 106.793 81.9641 107.276 82.3695 107.678C82.7724 108.077 83.2522 108.145 83.5237 108.145V105.145ZM84.5082 105.145H83.5237V108.145H84.5082V105.145ZM83.1395 106.515C83.1395 106.323 83.1893 105.905 83.551 105.547C83.9101 105.191 84.3243 105.145 84.5082 105.145V108.145C84.7797 108.145 85.2595 108.077 85.6624 107.678C86.0678 107.276 86.1395 106.793 86.1395 106.515H83.1395ZM83.1395 101.41V106.515H86.1395V101.41H83.1395ZM89.5295 99.9102H84.6395V102.91H89.5295V99.9102ZM88.1608 101.28C88.1608 101.089 88.2106 100.67 88.5723 100.312C88.9314 99.9563 89.3456 99.9102 89.5295 99.9102V102.91C89.801 102.91 90.2808 102.842 90.6837 102.443C91.0891 102.042 91.1608 101.558 91.1608 101.28H88.1608ZM88.1608 100.305V101.28H91.1608V100.305H88.1608ZM89.5295 101.675C89.3456 101.675 88.9314 101.629 88.5723 101.273C88.2106 100.915 88.1608 100.496 88.1608 100.305H91.1608C91.1608 100.027 91.0891 99.5433 90.6837 99.1416C90.2808 98.7425 89.801 98.6747 89.5295 98.6747V101.675ZM84.6395 101.675H89.5295V98.6747H84.6395V101.675ZM83.1395 95.0702V100.175H86.1395V95.0702H83.1395ZM84.5082 96.4402C84.3243 96.4402 83.9101 96.3941 83.551 96.0383C83.1893 95.68 83.1395 95.2617 83.1395 95.0702H86.1395C86.1395 94.7921 86.0678 94.3088 85.6624 93.9071C85.2595 93.508 84.7797 93.4402 84.5082 93.4402V96.4402Z" fill="#0062FF" mask="url(#path-83-outside-1_2_818)"/>
<defs>
<clipPath id="clip0_2_818">
<rect width="15.8867" height="15.7384" fill="white" transform="translate(6.3584 41.2738)"/>
</clipPath>
<clipPath id="clip1_2_818">
<rect width="21.8636" height="21.6596" fill="white" transform="translate(36.4268 167.157)"/>
</clipPath>
<clipPath id="clip2_2_818">
<rect width="17.7432" height="17.5776" fill="white" transform="translate(168.974 76.4214)"/>
</clipPath>
<clipPath id="clip3_2_818">
<rect width="4.37112" height="4.33033" fill="white" transform="translate(66.0962 67.6493)"/>
</clipPath>
<clipPath id="clip4_2_818">
<rect width="4.37112" height="4.33033" fill="white" transform="translate(66.0962 75.0728)"/>
</clipPath>
<clipPath id="clip5_2_818">
<rect width="4.37112" height="4.33033" fill="white" transform="translate(66.0962 82.496)"/>
</clipPath>
</defs>
</svg>
