<svg width="272" height="222" viewBox="0 0 272 222" fill="none" xmlns="http://www.w3.org/2000/svg">
<path opacity="0.2" d="M132 222C170.108 222 201 191.108 201 153C201 114.892 170.108 84 132 84C93.8923 84 63 114.892 63 153C63 191.108 93.8923 222 132 222Z" fill="#15B982"/>
<path d="M131.983 214.02C165.663 214.02 192.966 186.705 192.966 153.01C192.966 119.315 165.663 92 131.983 92C98.3029 92 71 119.315 71 153.01C71 186.705 98.3029 214.02 131.983 214.02Z" fill="#15B982"/>
<path d="M101.414 154.083C100.633 154.865 100.635 156.132 101.418 156.912L120.164 175.595C120.944 176.372 122.205 176.373 122.986 175.597L161.563 137.262C162.354 136.476 162.35 135.196 161.554 134.416L158.462 131.383C157.681 130.616 156.428 130.62 155.652 131.392L122.984 163.848C122.204 164.624 120.944 164.623 120.164 163.848L107.28 151.032C106.498 150.254 105.234 150.256 104.455 151.037L101.414 154.083Z" fill="white"/>
<path d="M218.629 128.307C216.767 121.787 208.388 122.485 208.388 122.485L208.62 126.91C213.508 125.978 216.534 131.8 216.534 131.8L218.629 128.307Z" fill="#15B982"/>
<path d="M42.1984 141.813C40.3363 135.293 31.957 135.991 31.957 135.991L32.1898 140.416C37.0777 139.484 40.1036 145.306 40.1036 145.306L42.1984 141.813Z" fill="#CDD3DB"/>
<path d="M139.491 53.3254C149.034 56.3526 155.086 45.1752 155.086 45.1752L149.267 41.9152C146.474 48.6682 136.698 47.9696 136.698 47.9696L139.491 53.3254Z" fill="#CDD3DB"/>
<path d="M85.7242 65.2013C81.3018 65.667 80.6035 71.2557 80.6035 71.2557L83.6294 71.7214C83.6294 68.4614 87.819 67.0642 87.819 67.0642L85.7242 65.2013Z" fill="#15B982"/>
<path d="M271.001 106.418C271.699 101.994 266.345 100.131 266.345 100.131L265.182 102.925C268.44 103.856 268.673 108.048 268.673 108.048L271.001 106.418Z" fill="#CDD3DB"/>
<path d="M112.026 6.28727C112.724 1.86289 107.371 0 107.371 0L106.207 2.79434C109.466 3.72579 109.698 7.9173 109.698 7.9173L112.026 6.28727Z" fill="#15B982"/>
<path d="M1.00023 78.4745C0.301952 85.4603 9.37954 87.0904 9.37954 87.0904L11.0088 82.4331C5.42264 81.9674 4.72437 75.4473 4.72437 75.4473L1.00023 78.4745Z" fill="#15B982"/>
<path d="M207.69 53.0925C212.112 53.3254 213.742 47.9695 213.742 47.9695L210.948 47.0381C210.483 50.2982 206.061 50.9967 206.061 50.9967L207.69 53.0925Z" fill="#15B982"/>
<path d="M228.638 71.9544C230.695 71.9544 232.362 71.7459 232.362 71.4887C232.362 71.2315 230.695 71.0229 228.638 71.0229C226.581 71.0229 224.914 71.2315 224.914 71.4887C224.914 71.7459 226.581 71.9544 228.638 71.9544Z" fill="#CDD3DB"/>
<path d="M236.319 68.9272C236.576 68.9272 236.785 67.2591 236.785 65.2014C236.785 63.1437 236.576 61.4756 236.319 61.4756C236.062 61.4756 235.854 63.1437 235.854 65.2014C235.854 67.2591 236.062 68.9272 236.319 68.9272Z" fill="#CDD3DB"/>
<path d="M244.234 71.7215C246.291 71.7215 247.958 71.513 247.958 71.2558C247.958 70.9986 246.291 70.79 244.234 70.79C242.177 70.79 240.51 70.9986 240.51 71.2558C240.51 71.513 242.177 71.7215 244.234 71.7215Z" fill="#CDD3DB"/>
<path d="M236.552 81.2688C236.81 81.2688 237.018 79.6007 237.018 77.543C237.018 75.4853 236.81 73.8173 236.552 73.8173C236.295 73.8173 236.087 75.4853 236.087 77.543C236.087 79.6007 236.295 81.2688 236.552 81.2688Z" fill="#CDD3DB"/>
<path d="M242.537 77.0575C242.734 76.8926 242.293 76.0387 241.551 75.1503C240.81 74.2618 240.049 73.6752 239.851 73.8401C239.654 74.0049 240.095 74.8588 240.837 75.7473C241.578 76.6357 242.339 77.2223 242.537 77.0575Z" fill="#CDD3DB"/>
<path d="M241.002 67.2164C241.726 66.4857 242.165 65.7465 241.983 65.5655C241.8 65.3844 241.065 65.8299 240.341 66.5606C239.617 67.2913 239.178 68.0305 239.361 68.2115C239.543 68.3926 240.278 67.9471 241.002 67.2164Z" fill="#CDD3DB"/>
<path d="M233.522 68.3407C233.687 68.1429 233.259 67.5159 232.568 66.9401C231.876 66.3643 231.182 66.0578 231.017 66.2555C230.853 66.4532 231.28 67.0803 231.972 67.6561C232.664 68.2319 233.358 68.5384 233.522 68.3407Z" fill="#CDD3DB"/>
<path d="M232.48 75.2197C233.173 74.4593 233.58 73.7024 233.39 73.5292C233.2 73.3559 232.485 73.8319 231.792 74.5924C231.1 75.3528 230.692 76.1097 230.882 76.2829C231.072 76.4561 231.788 75.9801 232.48 75.2197Z" fill="#CDD3DB"/>
<path d="M25.9058 51.2295C27.9626 51.2295 29.6299 51.021 29.6299 50.7638C29.6299 50.5066 27.9626 50.2981 25.9058 50.2981C23.849 50.2981 22.1816 50.5066 22.1816 50.7638C22.1816 51.021 23.849 51.2295 25.9058 51.2295Z" fill="#15B982"/>
<path d="M33.3542 48.2024C33.6113 48.2024 33.8197 46.5343 33.8197 44.4766C33.8197 42.4189 33.6113 40.7509 33.3542 40.7509C33.0971 40.7509 32.8887 42.4189 32.8887 44.4766C32.8887 46.5343 33.0971 48.2024 33.3542 48.2024Z" fill="#15B982"/>
<path d="M41.5015 50.9968C43.5583 50.9968 45.2256 50.7882 45.2256 50.531C45.2256 50.2738 43.5583 50.0653 41.5015 50.0653C39.4447 50.0653 37.7773 50.2738 37.7773 50.531C37.7773 50.7882 39.4447 50.9968 41.5015 50.9968Z" fill="#15B982"/>
<path d="M33.82 60.5441C34.0771 60.5441 34.2855 58.876 34.2855 56.8183C34.2855 54.7606 34.0771 53.0925 33.82 53.0925C33.5629 53.0925 33.3545 54.7606 33.3545 56.8183C33.3545 58.876 33.5629 60.5441 33.82 60.5441Z" fill="#15B982"/>
<path d="M39.8149 56.2933C40.0123 56.1285 39.5712 55.2746 38.8297 54.3861C38.0882 53.4977 37.3271 52.9111 37.1298 53.0759C36.9324 53.2408 37.3736 54.0946 38.115 54.9831C38.8565 55.8716 39.6176 56.4582 39.8149 56.2933Z" fill="#15B982"/>
<path d="M38.2875 46.4631C39.0115 45.7324 39.4504 44.9933 39.2678 44.8122C39.0852 44.6311 38.3503 45.0767 37.6263 45.8073C36.9023 46.538 36.4634 47.2772 36.646 47.4582C36.8286 47.6393 37.5636 47.1938 38.2875 46.4631Z" fill="#15B982"/>
<path d="M30.8046 47.5772C30.969 47.3795 30.5416 46.7525 29.8499 46.1767C29.1582 45.6009 28.4641 45.2944 28.2997 45.4921C28.1353 45.6898 28.5627 46.3169 29.2544 46.8927C29.9461 47.4685 30.6402 47.775 30.8046 47.5772Z" fill="#15B982"/>
<path d="M29.6141 54.6217C30.3067 53.8613 30.7142 53.1044 30.5241 52.9312C30.3341 52.7579 29.6186 53.2339 28.926 53.9944C28.2334 54.7548 27.8259 55.5116 28.0159 55.6849C28.206 55.8581 28.9215 55.3821 29.6141 54.6217Z" fill="#15B982"/>
</svg>
